<svg id="Layer_1" data-name="Layer 1" xmlns="http://www.w3.org/2000/svg" viewBox="0 0 64 64"><title>calender</title><path d="M35,36H29a1,1,0,0,1-1-1V29a1,1,0,0,1,1-1h6a1,1,0,0,1,1,1v6A1,1,0,0,1,35,36Zm-5-2h4V30H30Z" id="id_112" style="fill: rgb(255, 255, 255);"></path><path d="M48,36H42a1,1,0,0,1-1-1V29a1,1,0,0,1,1-1h6a1,1,0,0,1,1,1v6A1,1,0,0,1,48,36Zm-5-2h4V30H43Z" id="id_113" style="fill: rgb(255, 255, 255);"></path><path d="M48,46H42a1,1,0,0,1-1-1V39a1,1,0,0,1,1-1h6a1,1,0,0,1,1,1v6A1,1,0,0,1,48,46Zm-5-2h4V40H43Z" id="id_114" style="fill: rgb(255, 255, 255);"></path><path d="M35,46H29a1,1,0,0,1-1-1V39a1,1,0,0,1,1-1h6a1,1,0,0,1,1,1v6A1,1,0,0,1,35,46Zm-5-2h4V40H30Z" id="id_115" style="fill: rgb(255, 255, 255);"></path><path d="M22,36H16a1,1,0,0,1-1-1V29a1,1,0,0,1,1-1h6a1,1,0,0,1,1,1v6A1,1,0,0,1,22,36Zm-5-2h4V30H17Z" id="id_116" style="fill: rgb(255, 255, 255);"></path><path d="M22,46H16a1,1,0,0,1-1-1V39a1,1,0,0,1,1-1h6a1,1,0,0,1,1,1v6A1,1,0,0,1,22,46Zm-5-2h4V40H17Z" id="id_117" style="fill: rgb(255, 255, 255);"></path><path d="M52,51H12a5,5,0,0,1-5-5V18a5,5,0,0,1,5-5h4a1,1,0,0,1,1,1v2a2,2,0,0,0,4,0V14a1,1,0,0,1,1-1h7a1,1,0,0,1,1,1v2a2,2,0,0,0,4,0V14a1,1,0,0,1,1-1h7a1,1,0,0,1,1,1v2a2,2,0,0,0,4,0V14a1,1,0,0,1,1-1h4a5,5,0,0,1,5,5V46A5,5,0,0,1,52,51ZM12,15a3,3,0,0,0-3,3V46a3,3,0,0,0,3,3H52a3,3,0,0,0,3-3V18a3,3,0,0,0-3-3H49v1a4,4,0,0,1-8,0V15H36v1a4,4,0,0,1-8,0V15H23v1a4,4,0,0,1-8,0V15Z" id="id_118" style="fill: rgb(255, 255, 255);"></path><path d="M56,25H8a1,1,0,0,1,0-2H56a1,1,0,0,1,0,2Z" id="id_119" style="fill: rgb(255, 255, 255);"></path><path d="M32,20a4,4,0,0,1-4-4V12a4,4,0,1,1,8,0v4A4,4,0,0,1,32,20Zm0-10a2,2,0,0,0-2,2v4a2,2,0,0,0,4,0V12a2,2,0,0,0-2-2Z" id="id_120" style="fill: rgb(255, 255, 255);"></path><path d="M45,20a4,4,0,0,1-4-4V12a4,4,0,1,1,8,0v4A4,4,0,0,1,45,20Zm0-10a2,2,0,0,0-2,2v4a2,2,0,0,0,4,0V12a2,2,0,0,0-2-2Z" id="id_121" style="fill: rgb(255, 255, 255);"></path><path d="M19,20a4,4,0,0,1-4-4V12a4,4,0,1,1,8,0v4A4,4,0,0,1,19,20Zm0-10a2,2,0,0,0-2,2v4a2,2,0,0,0,4,0V12a2,2,0,0,0-2-2Z" id="id_122" style="fill: rgb(255, 255, 255);"></path></svg>