<?xml version="1.0" encoding="UTF-8" standalone="no"?> <svg width="100" height="100" viewBox="0 0 100 100" fill="none" xmlns="http://www.w3.org/2000/svg">
<path fill-rule="evenodd" clip-rule="evenodd" d="M50 100C77.6142 100 100 77.6142 100 50C100 22.3858 77.6142 0 50 0C22.3858 0 0 22.3858 0 50C0 77.6142 22.3858 100 50 100ZM71.9772 31.9444C72.3626 27.5643 67.7373 29.3678 67.7373 29.3678C64.3221 30.7816 60.7999 32.2183 57.2398 33.6705C46.2008 38.1733 34.7962 42.8253 25.0811 47.4036C19.8133 49.3361 22.8969 51.2685 22.8969 51.2685L31.2483 53.845C35.1027 55.0044 37.1585 53.7162 37.1585 53.7162L55.146 41.4776C61.5701 37.0975 60.0284 40.7047 58.4866 42.2506L44.9958 55.1332C42.9401 56.9368 43.968 58.4828 44.8674 59.2557C47.4163 61.5047 53.6866 65.6195 56.4241 67.4159C57.1364 67.8833 57.6095 68.1938 57.7156 68.2736C58.3581 68.789 61.827 71.1078 64.1398 70.5925C66.4525 70.0772 66.7094 67.1142 66.7094 67.1142L69.793 46.8883C70.2555 43.377 70.786 40.002 71.2097 37.3064C71.6099 34.7603 71.9148 32.8205 71.9772 31.9444Z" fill="black"/>
</svg>
